<svg width="690" height="91" viewBox="0 0 690 91" fill="none" xmlns="http://www.w3.org/2000/svg">
<path d="M90.92 26.52L116.24 11.22V19.74L102.62 28.26L116.24 36.42V45.42L90.92 30.42V26.52Z" fill="url(#paint0_linear_0_1)"/>
<path d="M174.553 1.2V43.8H166.333V25.62H147.013V43.8H138.733V1.2H147.013V18.42H166.333V1.2H174.553ZM196.713 44.4C194.193 44.4 191.913 43.98 189.873 43.14C187.833 42.26 186.093 41.08 184.653 39.6C183.213 38.08 182.093 36.36 181.293 34.44C180.533 32.48 180.153 30.42 180.153 28.26C180.153 25.26 180.813 22.52 182.133 20.04C183.493 17.56 185.413 15.58 187.893 14.1C190.413 12.58 193.373 11.82 196.773 11.82C200.213 11.82 203.153 12.58 205.593 14.1C208.033 15.58 209.893 17.56 211.173 20.04C212.493 22.48 213.153 25.12 213.153 27.96C213.153 28.44 213.133 28.94 213.093 29.46C213.053 29.94 213.013 30.34 212.973 30.66H188.673C188.833 32.26 189.293 33.66 190.053 34.86C190.853 36.06 191.853 36.98 193.053 37.62C194.293 38.22 195.613 38.52 197.013 38.52C198.613 38.52 200.113 38.14 201.513 37.38C202.953 36.58 203.933 35.54 204.453 34.26L211.353 36.18C210.593 37.78 209.493 39.2 208.053 40.44C206.653 41.68 204.993 42.66 203.073 43.38C201.153 44.06 199.033 44.4 196.713 44.4ZM188.493 25.56H204.933C204.773 23.96 204.313 22.58 203.553 21.42C202.833 20.22 201.873 19.3 200.673 18.66C199.473 17.98 198.133 17.64 196.653 17.64C195.213 17.64 193.893 17.98 192.693 18.66C191.533 19.3 190.573 20.22 189.813 21.42C189.093 22.58 188.653 23.96 188.493 25.56ZM217.991 1.90735e-06H226.031V33.72C226.031 35.16 226.271 36.14 226.751 36.66C227.231 37.14 227.891 37.38 228.731 37.38C229.371 37.38 230.031 37.3 230.711 37.14C231.391 36.98 231.991 36.78 232.511 36.54L233.591 42.66C232.511 43.18 231.251 43.58 229.811 43.86C228.371 44.14 227.071 44.28 225.911 44.28C223.391 44.28 221.431 43.62 220.031 42.3C218.671 40.94 217.991 39.02 217.991 36.54V1.90735e-06ZM251.674 44.4C249.154 44.4 246.874 43.98 244.834 43.14C242.794 42.26 241.054 41.08 239.614 39.6C238.174 38.08 237.054 36.36 236.254 34.44C235.494 32.48 235.114 30.42 235.114 28.26C235.114 25.26 235.774 22.52 237.094 20.04C238.454 17.56 240.374 15.58 242.854 14.1C245.374 12.58 248.334 11.82 251.734 11.82C255.174 11.82 258.114 12.58 260.554 14.1C262.994 15.58 264.854 17.56 266.134 20.04C267.454 22.48 268.114 25.12 268.114 27.96C268.114 28.44 268.094 28.94 268.054 29.46C268.014 29.94 267.974 30.34 267.934 30.66H243.634C243.794 32.26 244.254 33.66 245.014 34.86C245.814 36.06 246.814 36.98 248.014 37.62C249.254 38.22 250.574 38.52 251.974 38.52C253.574 38.52 255.074 38.14 256.474 37.38C257.914 36.58 258.894 35.54 259.414 34.26L266.314 36.18C265.554 37.78 264.454 39.2 263.014 40.44C261.614 41.68 259.954 42.66 258.034 43.38C256.114 44.06 253.994 44.4 251.674 44.4ZM243.454 25.56H259.894C259.734 23.96 259.274 22.58 258.514 21.42C257.794 20.22 256.834 19.3 255.634 18.66C254.434 17.98 253.094 17.64 251.614 17.64C250.174 17.64 248.854 17.98 247.654 18.66C246.494 19.3 245.534 20.22 244.774 21.42C244.054 22.58 243.614 23.96 243.454 25.56ZM302.232 43.8H294.192V26.16C294.192 23.64 293.752 21.8 292.872 20.64C291.992 19.48 290.772 18.9 289.212 18.9C288.132 18.9 287.032 19.18 285.912 19.74C284.832 20.3 283.852 21.08 282.972 22.08C282.092 23.04 281.452 24.16 281.052 25.44V43.8H273.012V12.36H280.272V18.18C281.072 16.82 282.092 15.68 283.332 14.76C284.572 13.8 285.992 13.08 287.592 12.6C289.232 12.08 290.952 11.82 292.752 11.82C294.712 11.82 296.312 12.18 297.552 12.9C298.832 13.58 299.792 14.52 300.432 15.72C301.112 16.88 301.572 18.2 301.812 19.68C302.092 21.16 302.232 22.66 302.232 24.18V43.8ZM307.063 34.5C307.063 32.46 307.623 30.68 308.743 29.16C309.903 27.6 311.503 26.4 313.543 25.56C315.583 24.72 317.923 24.3 320.562 24.3C321.883 24.3 323.223 24.4 324.583 24.6C325.943 24.8 327.123 25.12 328.123 25.56V23.88C328.123 21.88 327.523 20.34 326.323 19.26C325.163 18.18 323.423 17.64 321.103 17.64C319.383 17.64 317.743 17.94 316.183 18.54C314.623 19.14 312.983 20.02 311.263 21.18L308.683 15.9C310.763 14.54 312.883 13.52 315.043 12.84C317.243 12.16 319.543 11.82 321.943 11.82C326.423 11.82 329.903 12.94 332.383 15.18C334.903 17.42 336.163 20.62 336.163 24.78V34.8C336.163 35.64 336.303 36.24 336.583 36.6C336.903 36.96 337.403 37.18 338.083 37.26V43.8C337.363 43.92 336.703 44.02 336.103 44.1C335.543 44.18 335.063 44.22 334.663 44.22C333.063 44.22 331.843 43.86 331.003 43.14C330.203 42.42 329.703 41.54 329.503 40.5L329.323 38.88C327.963 40.64 326.263 42 324.223 42.96C322.183 43.92 320.103 44.4 317.983 44.4C315.903 44.4 314.023 43.98 312.343 43.14C310.703 42.26 309.403 41.08 308.443 39.6C307.523 38.08 307.063 36.38 307.063 34.5ZM326.623 36.12C327.063 35.64 327.423 35.16 327.703 34.68C327.983 34.2 328.123 33.76 328.123 33.36V30.18C327.163 29.78 326.123 29.48 325.003 29.28C323.883 29.04 322.823 28.92 321.823 28.92C319.743 28.92 318.023 29.38 316.663 30.3C315.343 31.18 314.683 32.36 314.683 33.84C314.683 34.64 314.903 35.4 315.343 36.12C315.783 36.84 316.423 37.42 317.263 37.86C318.103 38.3 319.103 38.52 320.263 38.52C321.463 38.52 322.643 38.3 323.803 37.86C324.963 37.38 325.903 36.8 326.623 36.12ZM368.575 1.2H376.975L392.635 43.8H384.115L380.155 33.18H365.275L361.375 43.8H352.855L368.575 1.2ZM378.655 27.36L372.775 9.78L366.655 27.36H378.655ZM425.747 43.8H417.707V26.16C417.707 23.64 417.267 21.8 416.387 20.64C415.507 19.48 414.287 18.9 412.727 18.9C411.647 18.9 410.547 19.18 409.427 19.74C408.347 20.3 407.367 21.08 406.487 22.08C405.607 23.04 404.967 24.16 404.567 25.44V43.8H396.527V12.36H403.787V18.18C404.587 16.82 405.607 15.68 406.847 14.76C408.087 13.8 409.507 13.08 411.107 12.6C412.747 12.08 414.467 11.82 416.267 11.82C418.227 11.82 419.827 12.18 421.067 12.9C422.347 13.58 423.307 14.52 423.947 15.72C424.627 16.88 425.087 18.2 425.327 19.68C425.607 21.16 425.747 22.66 425.747 24.18V43.8ZM451.402 42.18C450.722 42.46 449.902 42.78 448.942 43.14C447.982 43.5 446.942 43.78 445.822 43.98C444.742 44.22 443.642 44.34 442.522 44.34C441.042 44.34 439.682 44.08 438.442 43.56C437.202 43.04 436.202 42.22 435.442 41.1C434.722 39.94 434.362 38.44 434.362 36.6V18.54H430.222V12.36H434.362V2.16H442.402V12.36H449.002V18.54H442.402V33.9C442.442 34.98 442.742 35.76 443.302 36.24C443.862 36.72 444.562 36.96 445.402 36.96C446.242 36.96 447.062 36.82 447.862 36.54C448.662 36.26 449.302 36.02 449.782 35.82L451.402 42.18ZM469.758 44.4C467.198 44.4 464.898 43.98 462.858 43.14C460.818 42.26 459.078 41.06 457.638 39.54C456.238 38.02 455.158 36.28 454.398 34.32C453.638 32.36 453.258 30.3 453.258 28.14C453.258 25.94 453.638 23.86 454.398 21.9C455.158 19.94 456.238 18.2 457.638 16.68C459.078 15.16 460.818 13.98 462.858 13.14C464.898 12.26 467.198 11.82 469.758 11.82C472.318 11.82 474.598 12.26 476.598 13.14C478.638 13.98 480.378 15.16 481.818 16.68C483.258 18.2 484.338 19.94 485.058 21.9C485.818 23.86 486.198 25.94 486.198 28.14C486.198 30.3 485.818 32.36 485.058 34.32C484.338 36.28 483.258 38.02 481.818 39.54C480.418 41.06 478.698 42.26 476.658 43.14C474.618 43.98 472.318 44.4 469.758 44.4ZM461.538 28.14C461.538 29.98 461.898 31.62 462.618 33.06C463.338 34.46 464.318 35.56 465.558 36.36C466.798 37.16 468.198 37.56 469.758 37.56C471.278 37.56 472.658 37.16 473.898 36.36C475.138 35.52 476.118 34.4 476.838 33C477.598 31.56 477.978 29.92 477.978 28.08C477.978 26.28 477.598 24.66 476.838 23.22C476.118 21.78 475.138 20.66 473.898 19.86C472.658 19.06 471.278 18.66 469.758 18.66C468.198 18.66 466.798 19.08 465.558 19.92C464.318 20.72 463.338 21.84 462.618 23.28C461.898 24.68 461.538 26.3 461.538 28.14ZM520.845 43.8H512.805V26.16C512.805 23.64 512.365 21.8 511.485 20.64C510.605 19.48 509.385 18.9 507.825 18.9C506.745 18.9 505.645 19.18 504.525 19.74C503.445 20.3 502.465 21.08 501.585 22.08C500.705 23.04 500.065 24.16 499.665 25.44V43.8H491.625V12.36H498.885V18.18C499.685 16.82 500.705 15.68 501.945 14.76C503.185 13.8 504.605 13.08 506.205 12.6C507.845 12.08 509.565 11.82 511.365 11.82C513.325 11.82 514.925 12.18 516.165 12.9C517.445 13.58 518.405 14.52 519.045 15.72C519.725 16.88 520.185 18.2 520.425 19.68C520.705 21.16 520.845 22.66 520.845 24.18V43.8ZM527.836 43.8V12.36H535.876V43.8H527.836ZM527.836 7.98V1.90735e-06H535.876V7.98H527.836Z" fill="white"/>
<path d="M594.143 1.2L564.383 43.8H555.503L585.203 1.2H594.143ZM624.757 30.42L599.437 45.42V36.42L613.057 28.26L599.437 19.74V11.22L624.757 26.52V30.42Z" fill="url(#paint1_linear_0_1)"/>
<g filter="url(#filter0_d_0_1)">
<line x1="4" y1="81.3" x2="686" y2="81.3" stroke="url(#paint2_linear_0_1)" stroke-width="3"/>
</g>
<defs>
<filter id="filter0_d_0_1" x="0" y="79.8" width="690" height="11" filterUnits="userSpaceOnUse" color-interpolation-filters="sRGB">
<feFlood flood-opacity="0" result="BackgroundImageFix"/>
<feColorMatrix in="SourceAlpha" type="matrix" values="0 0 0 0 0 0 0 0 0 0 0 0 0 0 0 0 0 0 127 0" result="hardAlpha"/>
<feOffset dy="4"/>
<feGaussianBlur stdDeviation="2"/>
<feComposite in2="hardAlpha" operator="out"/>
<feColorMatrix type="matrix" values="0 0 0 0 0 0 0 0 0 0 0 0 0 0 0 0 0 0 0.25 0"/>
<feBlend mode="normal" in2="BackgroundImageFix" result="effect1_dropShadow_0_1"/>
<feBlend mode="normal" in="SourceGraphic" in2="effect1_dropShadow_0_1" result="shape"/>
</filter>
<linearGradient id="paint0_linear_0_1" x1="89" y1="22.8" x2="627" y2="22.8" gradientUnits="userSpaceOnUse">
<stop stop-color="#8C52FF"/>
<stop offset="0.0961538" stop-color="#FF914D"/>
</linearGradient>
<linearGradient id="paint1_linear_0_1" x1="89" y1="22.8" x2="627" y2="22.8" gradientUnits="userSpaceOnUse">
<stop offset="0.692308" stop-color="#8C52FF"/>
<stop offset="1" stop-color="#FF914D"/>
</linearGradient>
<linearGradient id="paint2_linear_0_1" x1="4" y1="83.3" x2="686" y2="83.3" gradientUnits="userSpaceOnUse">
<stop offset="0.326923" stop-color="#8C52FF"/>
<stop offset="1" stop-color="#FF914D"/>
</linearGradient>
</defs>
</svg>
